<?xml version="1.0" standalone="no"?>
<!DOCTYPE svg PUBLIC "-//W3C//DTD SVG 20010904//EN"
 "http://www.w3.org/TR/2001/REC-SVG-20010904/DTD/svg10.dtd">
<svg version="1.0" xmlns="http://www.w3.org/2000/svg"
 width="512.000000pt" height="512.000000pt" viewBox="0 0 512.000000 512.000000"
 preserveAspectRatio="xMidYMid meet">

<g transform="translate(0.000000,512.000000) scale(0.100000,-0.100000)"
fill="#000000" stroke="none">
<path d="M0 2560 l0 -2560 2560 0 2560 0 0 2560 0 2560 -2560 0 -2560 0 0
-2560z m2517 2320 c266 -62 613 -261 1065 -610 187 -145 370 -333 535 -550
144 -191 199 -248 357 -375 98 -79 120 -104 160 -183 72 -143 74 -348 5 -484
-92 -179 -350 -417 -537 -494 -183 -75 -301 -127 -334 -150 -58 -37 -53 -72
21 -171 79 -104 171 -197 317 -320 67 -56 138 -121 157 -144 124 -144 67 -362
-117 -444 -107 -49 -224 -42 -355 20 -41 20 -75 34 -77 33 -1 -2 2 -28 8 -58
20 -112 -8 -200 -85 -262 -72 -60 -238 -170 -296 -196 -41 -19 -72 -25 -125
-26 -92 -1 -151 21 -205 79 -64 68 -67 65 -50 -45 22 -146 -34 -210 -229 -262
-186 -49 -462 -9 -517 76 -9 13 -25 73 -35 134 -32 179 -92 361 -156 469 -26
46 -67 73 -108 73 -14 0 -143 -26 -288 -57 -323 -69 -355 -70 -558 -19 -80 21
-164 46 -187 57 -83 40 -161 152 -233 333 -45 114 -73 244 -120 546 -22 146
-55 351 -71 455 -27 168 -30 206 -26 330 4 101 13 171 32 250 66 281 78 388
63 581 -13 166 -1 277 44 411 46 139 111 237 257 387 155 158 300 269 446 341
156 76 582 239 695 264 193 44 390 48 547 11z"/>
<path d="M3087 3738 c-102 -54 -190 -145 -212 -223 -15 -50 -15 -67 0 -202 37
-328 121 -686 195 -833 50 -97 134 -160 215 -160 48 0 57 5 230 139 172 133
282 238 343 330 69 105 73 141 32 313 -16 67 -31 95 -121 230 -114 168 -218
282 -311 336 -54 32 -134 63 -244 95 l-50 15 -77 -40z"/>
<path d="M1297 2820 c-34 -27 -102 -164 -118 -237 -16 -75 2 -313 32 -428 43
-166 137 -324 231 -388 88 -60 113 -63 395 -46 286 18 307 24 399 111 114 108
113 156 -4 353 -20 33 -54 85 -77 115 -23 30 -61 88 -84 129 -23 41 -53 88
-67 105 -90 110 -277 213 -490 271 -152 41 -182 43 -217 15z"/>
<path d="M2632 2233 c3 -28 19 -81 37 -118 37 -79 76 -259 91 -414 11 -117 25
-171 44 -171 10 0 12 25 8 103 -3 80 -1 106 11 122 14 19 17 19 49 3 18 -9 66
-47 107 -84 l74 -68 24 29 c53 66 46 84 -116 300 -134 177 -214 266 -285 314
l-49 34 5 -50z"/>
</g>
</svg>
